<svg xmlns="http://www.w3.org/2000/svg" width="60" height="46.667" viewBox="0 0 60 46.667">
  <path id="Icon_awesome-credit-card" data-name="Icon awesome-credit-card" d="M0,43.917a5,5,0,0,0,5,5H55a5,5,0,0,0,5-5V25.583H0Zm20-7.083a1.254,1.254,0,0,1,1.25-1.25H35.417a1.254,1.254,0,0,1,1.25,1.25V41a1.254,1.254,0,0,1-1.25,1.25H21.25A1.254,1.254,0,0,1,20,41Zm-13.333,0a1.254,1.254,0,0,1,1.25-1.25h7.5a1.254,1.254,0,0,1,1.25,1.25V41a1.254,1.254,0,0,1-1.25,1.25h-7.5A1.254,1.254,0,0,1,6.667,41ZM60,7.25v5H0v-5a5,5,0,0,1,5-5H55A5,5,0,0,1,60,7.25Z" transform="translate(0 -2.25)" fill="#474747"/>
</svg>
