<svg xmlns="http://www.w3.org/2000/svg" width="53.54" height="46.67" viewBox="0 0 53.54 46.67">
  <path id="Icon_payment-ideal" data-name="Icon payment-ideal" d="M62.687,39.584q0,12.728-6.869,18.385-6.062,5.052-15.76,5.051H9.148V16.35H40.059q9.7,0,15.759,5.455a17.439,17.439,0,0,1,5.051,7.273,27.658,27.658,0,0,1,1.819,10.506Zm-3.031,0q0-10.3-5.859-15.557-5.256-4.645-14.345-4.646H12.178V59.989H39.453q20.2,0,20.2-20.4Zm-40.205-8.89a4.849,4.849,0,1,0,3.435,8.284,4.849,4.849,0,0,0-3.435-8.284ZM15.007,56.959h8.687V42.615H15.007V56.959ZM50.767,40.19h6.062q0,16.772-18.789,16.769h-10.3V40.19h1.01a4.2,4.2,0,0,0,1.617-.2,4.639,4.639,0,0,0,1.213-.606,4.755,4.755,0,0,0,1.01-1.617,5.068,5.068,0,0,0,.2-1.818,6.477,6.477,0,0,0-.1-1.01,5.726,5.726,0,0,1-.1-.808,5.541,5.541,0,0,0-.5-.808,1.226,1.226,0,0,1-.3-.606,2.227,2.227,0,0,0-1.414-.808,4.259,4.259,0,0,0-1.617-.2h-1.01V23.219h10.3q17.776,0,18.789,15.153H52.989V31.7H50.767V40.19Zm-20.2-4.242v1.414l-.4.606c-.272.272-.474.4-.606.4H27.735V33.522h1.617a1.172,1.172,0,0,1,.808.4c0,.135.133.337.4.606v1.415Zm10.3,2.424H36.221V36.755h4.041V34.936H36.221V33.522h4.445V31.7H34.2V40.19h6.667V38.371Zm9.091,1.818L46.726,31.7H44.5L41.272,40.19h2.222l.606-1.818H47.13a12.016,12.016,0,0,0,.606,1.818Zm-5.051-3.637.4-1.213a3.375,3.375,0,0,0,.2-1.01,6.417,6.417,0,0,1,.808,2.222Z" transform="translate(-9.148 -16.35)" fill="#474747"/>
</svg>
