<?xml version="1.0" encoding="UTF-8"?>
<svg id="Layer_2" data-name="Layer 2" xmlns="http://www.w3.org/2000/svg" viewBox="0 0 756.64 328.57">
  <defs>
    <style>
      .cls-1 {
        fill: #f7a84c;
      }
    </style>
  </defs>
  <g id="Layer_1-2" data-name="Layer 1">
    <g>
      <path class="cls-1" d="m146.25,181.86h22.25c.9,2.04,1.95,4.17,2.8,6.38,3.11,8.04,6.13,16.12,9.25,24.16.55,1.41,1.37,2.71,2.47,4.83,1.01-1.89,1.66-2.9,2.11-3.99,3.74-9.17,7.53-18.32,11.09-27.56,1.14-2.97,2.74-4.27,6.01-4.14,5.57.23,11.17.06,17.59.06-.72,2-1.21,3.57-1.84,5.07-7.33,17.35-14.61,34.72-22.09,52.01-1.38,3.18-1.43,5.89-.1,9.1,6.79,16.38,13.39,32.84,20.08,49.26.53,1.29,1.21,2.52,2.25,4.66,1.44-3,2.63-5.17,3.57-7.45,8.6-20.99,17.12-42.01,25.75-62.99,6.26-15.21,12.74-30.34,18.96-45.57,1.05-2.57,2.36-3.93,5.18-3.89,5.74.07,11.49.02,17.94.02-.58,1.8-.96,3.41-1.59,4.91-11.43,26.88-22.94,53.73-34.32,80.64-7.65,18.09-15.12,36.25-22.68,54.37-.43,1.03-.95,2.03-1.35,3.07-.96,2.55-2.64,3.7-5.47,3.54-3.83-.21-7.68-.24-11.5-.08-3.05.13-4.54-1.2-5.67-3.95-5.16-12.56-10.51-25.03-15.8-37.53-2.06-4.85-4.12-9.7-6.24-14.53-.49-1.12-1.24-2.13-2.17-3.71-.99,1.67-1.83,2.81-2.37,4.07-6.29,14.68-12.53,29.37-18.81,44.06-1.32,3.08-2.75,6.12-4.06,9.21-.7,1.66-1.78,2.48-3.65,2.45-4.47-.08-8.95-.05-13.42-.04-2.29,0-3.6-.82-4.59-3.19-17.67-42.12-35.49-84.18-53.23-126.27-2.27-5.39-4.3-10.88-6.77-17.15,7.34,0,13.83-.07,20.31.09.81.02,1.88,1.18,2.31,2.06,1.33,2.72,2.45,5.55,3.59,8.36,14.02,34.48,28.01,68.97,42.05,103.45.7,1.71,1.64,3.32,2.97,5.97,1.81-4.38,3.2-7.71,4.58-11.05,5.74-13.88,11.34-27.81,17.29-41.6,1.78-4.13,1.99-7.73.22-11.89-6.56-15.43-12.88-30.97-19.29-46.47-1.09-2.63-2.15-5.26-3.59-8.77Z"/>
      <path class="cls-1" d="m492.5,82.44c2.86-2.73,5.78-5.4,8.57-8.2,19.06-19.14,38.09-38.31,57.14-57.46,3.72-3.74,7.47-7.44,11.17-11.2,1.77-1.8,3.72-2.68,6.37-2.62,7.15.17,14.3.06,22.7.06-21.6,22.8-42.93,44.21-64.86,65.62,1.34,2.11,2.35,4.1,3.72,5.78,16.04,19.7,32.14,39.36,48.23,59.02,5.96,7.28,11.95,14.54,18.32,22.28-1.35.28-2.16.59-2.98.6-5.75.05-11.51-.07-17.26.09-3.17.09-5.44-1.04-7.42-3.48-7.53-9.32-15.16-18.57-22.79-27.81-9.67-11.7-19.37-23.38-29.08-35.05-1.41-1.69-2.93-3.29-4.79-5.36-2.03,1.59-3.87,2.78-5.41,4.28-6.42,6.23-12.68,12.63-19.15,18.81-2.36,2.25-3.56,4.69-3.54,7.98.1,12.78.06,25.56.05,38.34,0,.45-.22.9-.32,1.31-3.98,1.3-15.9,1.25-20.1-.17V3.28h20.46c0,8.85,0,17.6,0,26.35,0,8.79.01,17.59.02,26.38,0,8.72,0,17.43,0,26.15.33.1.66.19.98.29Z"/>
      <path class="cls-1" d="m594.92,181.85c1.83-.12,3.39-.3,4.96-.3,16.14-.02,32.28-.22,48.42.05,17.68.29,31.51,7.72,39.85,23.68,8.95,17.13,6.79,45.82-17.94,59.29-1.23.67-2.46,1.34-4.18,2.27,1.31,2.13,2.36,4.05,3.6,5.82,11.76,16.72,23.57,33.42,35.34,50.13.99,1.4,1.86,2.89,3.13,4.88-1.78.26-2.94.57-4.11.59-4.47.06-8.96-.13-13.42.09-3.37.16-5.56-.99-7.52-3.84-7.96-11.58-16.15-23.01-24.29-34.46-3.98-5.6-8.09-11.1-12.03-16.72-1.72-2.46-3.83-3.5-6.87-3.44-6.55.12-13.1-.08-19.65-.09-1.71,0-3.43.22-5.57.37-.1,2.39-.25,4.41-.26,6.44-.04,14.86-.03,29.72-.08,44.59,0,2.21-.24,4.43-.38,6.91h-18.3c-.96-3.37-1.65-137.62-.71-146.22Zm19.37,18.07c0,8.91-.1,17.32.03,25.74.12,8.52-.57,17.07.14,25.42,12.56,0,24.52.15,36.47-.1,3.27-.07,6.71-.84,9.72-2.12,8.77-3.73,12.85-11.05,14.14-20.14,1.88-13.28-8.2-26.63-21.52-28.16-5.36-.62-10.81-.55-16.22-.62-7.32-.09-14.65-.02-22.75-.02Z"/>
      <path class="cls-1" d="m119.32,2.9h20.15c.11,1.64.29,3.02.29,4.41,0,26.53.51,53.08-.21,79.59-.57,21.21,14.81,45.53,39.44,50.77,31.7,6.75,56.17-12.59,61.88-38.71.91-4.17.98-8.57.99-12.87.08-24.77.03-49.55.02-74.32,0-2.69,0-5.38,0-8.71,6.6-.31,12.88-.1,19.63.05.14,2,.37,3.7.37,5.4.09,26.53.36,53.06.16,79.59-.18,23.33-10.73,41.65-28.68,55.97-12.22,9.74-26.26,13.61-41.87,13.85-36.13.58-62.43-25.01-69.79-53.53-1.34-5.19-1.9-10.71-1.96-16.09-.3-26.21-.31-52.42-.42-78.64,0-2.07,0-4.14,0-6.76Z"/>
      <path class="cls-1" d="m332.78,265.45v44.73c2.27.17,4.28.46,6.3.46,20.93,0,41.86-.04,62.79-.07,3.64,0,7.27,0,10.68,0,1.39,4.55,1.5,12.35.34,17.68-33.02.28-66.16.43-99.7-.03v-146.09c1.81-.18,3.35-.46,4.9-.46,30.2-.03,60.39-.05,90.59-.03,4.3,0,4.73.41,4.83,4.57.1,4.28.02,8.56.02,13.49h-80.1c-1.17,4.23-1.38,37.42-.41,46.48,2.04.14,4.19.42,6.34.43,18.53.04,37.07.03,55.6.03,1.74,0,3.48,0,5.09,0,1.59,4.88,1.77,11.27.52,18.81-11.18,0-22.48,0-33.79,0s-22.31,0-33.99,0Z"/>
      <path class="cls-1" d="m435.84,28.78c-4.35,4.73-8.37,9.15-13.71,12.72-1.48-1.31-2.79-2.42-4.05-3.59-13.17-12.29-28.46-19.24-46.76-18.58-14.69.53-27.27,6.25-38.04,15.99-12.26,11.1-19.16,25.07-20.43,41.51-.94,12.29,2.37,23.77,8.98,34.19,8.98,14.18,21.55,23.65,38.12,26.7,22.18,4.08,41.88-.8,57.52-18.07,1.7-1.87,3.41-3.74,5.5-6.03,5.05,4.26,9.63,8.13,14.43,12.18-.9,1.35-1.46,2.47-2.26,3.37-12.81,14.35-28.07,24.84-47.39,27.75-47.4,7.15-81.9-19.92-91.79-56.5-8.03-29.71-.24-56.45,22.04-78.09C332.62,8.09,350.47.95,371.07.08c24.08-1.02,43.9,7.91,60.95,24.18,1.34,1.28,2.42,2.84,3.82,4.52Z"/>
      <path class="cls-1" d="m573.5,328.04h-20.84c-8.14-18.55-16.11-37.17-24.46-55.62-8.26-18.26-15.95-36.8-25.34-55.78-1.48,2.42-2.5,3.78-3.19,5.29-7.01,15.4-14.06,30.78-20.91,46.25-8.15,18.38-16.19,36.81-24.12,55.29-1.5,3.48-3.26,5.4-7.43,5.05-4.88-.41-9.83-.1-15.47-.1.97-2.46,1.59-4.23,2.35-5.93,17.4-38.77,34.81-77.53,52.21-116.3,3.07-6.84,6.27-13.63,9.13-20.56,1.23-2.97,3.01-4.36,6.15-4.08.16.01.32,0,.48-.01,6.3-.2,6.48-.15,9.03,5.52,2.55,5.68,4.96,11.43,7.49,17.13,17.06,38.4,34.15,76.78,51.22,115.18,1.16,2.6,2.24,5.24,3.71,8.68Z"/>
      <path class="cls-1" d="m700.37,156.08h-19.88c-.12-2.79-.32-5.28-.33-7.77-.06-16.78-.14-33.56-.07-50.35.01-3.35-.89-6.18-2.66-8.98-16.7-26.48-33.33-53-49.95-79.54-1.15-1.83-2.03-3.83-3.4-6.44,7.65,0,14.48.03,21.3-.01,2.45-.01,3.12,1.92,4.08,3.52,6.61,10.94,13.18,21.9,19.78,32.84,6.11,10.12,12.22,20.24,18.36,30.34.64,1.06,1.49,1.99,2.64,3.51,1.36-1.89,2.56-3.32,3.51-4.9,12.03-19.98,24.12-39.92,35.94-60.02,2.31-3.93,4.96-5.7,9.54-5.42,5.5.34,11.04.08,17.39.08-2.08,3.51-3.63,6.24-5.29,8.91-16.31,26.15-32.69,52.26-48.86,78.51-1.4,2.28-1.9,5.42-1.95,8.18-.23,12.62-.15,25.25-.17,37.88-.01,6.38,0,12.76,0,19.66Z"/>
      <path class="cls-1" d="m21.24,137.78c24.23.23,48.12-.03,72.62.14.39,6.25.25,12.04.07,17.72-3.77,1.03-86.84,1.34-93.12.46C-.14,152.61-.33,8.71.64,3.34c.54-.09,1.14-.27,1.74-.28,5.9-.02,11.8-.01,18.31-.01.05,2.07.14,3.92.15,5.76.01,40.58.01,81.17.04,121.75,0,2.19.21,4.39.36,7.21Z"/>
    </g>
  </g>
</svg>