<svg xmlns="http://www.w3.org/2000/svg" width="60" height="46.667" viewBox="0 0 60 46.667">
  <path id="Icon_awesome-cc-paypal" data-name="Icon awesome-cc-paypal" d="M19.406,25.813a2.235,2.235,0,0,1-2.292,2.24,1.505,1.505,0,0,1-1.667-1.563,2.259,2.259,0,0,1,2.26-2.292A1.564,1.564,0,0,1,19.406,25.813ZM8.385,20.76H7.9a.326.326,0,0,0-.333.281l-.448,2.781.854-.031c1.146,0,2.031-.156,2.24-1.479.24-1.4-.646-1.552-1.823-1.552Zm29.583,0H37.5a.307.307,0,0,0-.333.281l-.437,2.781.833-.031c1.354,0,2.292-.312,2.292-1.875-.01-1.1-1-1.156-1.885-1.156ZM60,7.25V43.917a5,5,0,0,1-5,5H5a5,5,0,0,1-5-5V7.25a5,5,0,0,1,5-5H55A5,5,0,0,1,60,7.25Zm-46.635,14.1c0-2.187-1.687-2.917-3.615-2.917H5.583a.55.55,0,0,0-.542.49L3.333,29.563a.359.359,0,0,0,.333.417H5.646a.665.665,0,0,0,.573-.594l.469-2.771c.1-.75,1.375-.49,1.875-.49,2.979,0,4.8-1.771,4.8-4.771Zm8.771.917H20.156c-.4,0-.417.573-.437.854a2.66,2.66,0,0,0-2.469-1.042,4.648,4.648,0,0,0-4.5,4.708,3.109,3.109,0,0,0,3.3,3.354,4.057,4.057,0,0,0,2.76-1.24,2.784,2.784,0,0,0-.1.646c0,.24.1.417.333.417h1.792c.281,0,.521-.3.573-.594l1.063-6.7A.354.354,0,0,0,22.135,22.271Zm4.219,10.2,6.635-9.646a.214.214,0,0,0,.052-.177.372.372,0,0,0-.333-.365h-2a.589.589,0,0,0-.469.26L27.479,26.6,26.333,22.7a.632.632,0,0,0-.573-.417H23.812a.372.372,0,0,0-.333.365c0,.125,2.031,5.917,2.208,6.469a26.911,26.911,0,0,0-2.135,3.292.336.336,0,0,0,.333.333h2a.613.613,0,0,0,.469-.271ZM42.948,21.354c0-2.187-1.687-2.917-3.615-2.917H35.2a.574.574,0,0,0-.573.49L32.937,29.552a.371.371,0,0,0,.333.417h2.135a.446.446,0,0,0,.417-.333l.469-3.021c.1-.75,1.375-.49,1.875-.49A4.4,4.4,0,0,0,42.948,21.354Zm8.771.917H49.74c-.4,0-.417.573-.448.854a2.612,2.612,0,0,0-2.469-1.042,4.648,4.648,0,0,0-4.5,4.708,3.109,3.109,0,0,0,3.3,3.354,3.938,3.938,0,0,0,2.76-1.24,4.629,4.629,0,0,0-.1.646c0,.24.1.417.333.417h1.8c.281,0,.521-.3.573-.594l1.062-6.7a.354.354,0,0,0-.333-.406ZM56.667,18.8a.35.35,0,0,0-.333-.365H54.406a.345.345,0,0,0-.333.281L52.385,29.552l-.031.052a.369.369,0,0,0,.365.365h1.719a.645.645,0,0,0,.542-.594l1.687-10.542V18.8Zm-9.375,5.4a2.252,2.252,0,0,0-2.26,2.292,1.527,1.527,0,0,0,1.688,1.563,2.221,2.221,0,0,0,2.26-2.24A1.551,1.551,0,0,0,47.292,24.2Z" transform="translate(0 -2.25)" fill="#474747"/>
</svg>
