<svg xmlns="http://www.w3.org/2000/svg" width="60" height="46.667" viewBox="0 0 60 46.667">
  <path id="Icon_awesome-cc-visa" data-name="Icon awesome-cc-visa" d="M48.969,23.01s.792,3.875.969,4.688H46.458c.344-.927,1.667-4.531,1.667-4.531-.021.031.344-.948.552-1.552l.292,1.4ZM60,7.25V43.917a5,5,0,0,1-5,5H5a5,5,0,0,1-5-5V7.25a5,5,0,0,1,5-5H55A5,5,0,0,1,60,7.25ZM15.885,33.417,22.469,17.25H18.042L13.948,28.292l-.448-2.24-1.458-7.438a1.742,1.742,0,0,0-1.9-1.365H3.406l-.073.323a16.53,16.53,0,0,1,4.4,1.781l3.729,14.063Zm9.833.021L28.344,17.25H24.156L21.542,33.438h4.177Zm14.573-5.292c.021-1.844-1.1-3.25-3.51-4.406-1.469-.74-2.365-1.24-2.365-2,.021-.687.76-1.4,2.406-1.4a7.178,7.178,0,0,1,3.115.615l.375.177.573-3.5a10.4,10.4,0,0,0-3.75-.688c-4.135,0-7.042,2.208-7.063,5.354-.031,2.323,2.083,3.615,3.667,4.4,1.615.792,2.167,1.313,2.167,2.01-.021,1.083-1.312,1.583-2.51,1.583a8.344,8.344,0,0,1-3.927-.865l-.552-.26L28.333,32.8A12.782,12.782,0,0,0,33,33.667C37.4,33.677,40.26,31.5,40.292,28.146ZM55,33.438,51.625,17.25h-3.24A2.06,2.06,0,0,0,46.2,18.594L39.979,33.438h4.4s.719-2,.875-2.427h5.375c.125.573.5,2.427.5,2.427Z" transform="translate(0 -2.25)" fill="#474747"/>
</svg>
